#!OML:ASF H:\Punching\Project 1\Capture day 1\Session 1\female.ASF
:FULLY-SPECIFIED
:DEGREES
2643
root 3.31007 14.5452 -1.92905 17.6682 22.4823 4.0602
lowerback -3.64008 -1.4196 -1.82628
upperback -7.86033 -1.81597 0.778992
thorax -6.04226 -0.749299 1.85844
lowerneck -15.3974 -3.4285 1.93142
upperneck 32.2734 -5.39405 -0.408898
head 13.3594 -2.11902 -1.32994
rclavicle 6.57232e-015 1.74931e-014
rhumerus 16.693 9.99235 -58.1011
rradius 132.988
rwrist -17.9086
rhand -30.9849 12.4815
rfingers 7.12502
rthumb -4.2686 -17.4555
lclavicle 6.57232e-015 1.74931e-014
lhumerus 7.08697 -31.8297 70.7638
lradius 136.553
lwrist 0.648984
lhand -24.2907 3.36204
lfingers 7.12502
lthumb 2.19656 33.3305
rfemur -52.108 -13.4795 7.09592
rtibia 51.5427
rfoot -7.62997 -14.0442
rtoes 0.532023
lfemur -3.62058 -15.0155 -17.9344
ltibia 24.0619
lfoot -34.9821 27.1583
ltoes -5.20324
2644
root 3.31266 14.5448 -1.9335 17.4881 22.4092 3.88125
lowerback -3.62195 -1.42253 -1.68732
upperback -7.85421 -1.82007 0.782234
thorax -6.04932 -0.759526 1.78465
lowerneck -15.3768 -3.3849 1.95862
upperneck 32.3427 -5.31628 -0.477978
head 13.3822 -2.08989 -1.35047
rclavicle -9.7156e-015 2.06736e-014
rhumerus 16.743 10.1179 -58.1206
rradius 132.921
rwrist -17.7129
rhand -30.9493 12.4111
rfingers 7.12502
rthumb -4.23421 -17.5265
lclavicle -9.7156e-015 2.06736e-014
lhumerus 7.01565 -31.811 70.8438
lradius 136.58
lwrist 0.685431
lhand -24.2972 3.32522
lfingers 7.12502
lthumb 2.19029 33.2937
rfemur -51.979 -13.4748 7.3136
rtibia 51.4034
rfoot -7.52928 -13.9546
rtoes 0.419654
lfemur -3.51453 -14.97 -17.8456
ltibia 24.1486
lfoot -35.0589 27.2588
ltoes -5.28986
2645
root 3.31487 14.5447 -1.937 17.2955 22.3347 3.69467
lowerback -3.60129 -1.42845 -1.55661
upperback -7.84282 -1.82769 0.797713
thorax -6.05153 -0.770736 1.72823
lowerneck -15.3524 -3.34097 1.98685
upperneck 32.4008 -5.23652 -0.551
head 13.3992 -2.0607 -1.37212
rclavicle 2.63265e-014 -1.11319e-014
rhumerus 16.791 10.2432 -58.1222
rradius 132.866
rwrist -17.5778
rhand -30.8973 12.363
rfingers 7.12502
rthumb -4.18401 -17.5757
lclavicle 2.63265e-014 -1.11319e-014
lhumerus 6.93883 -31.8024 70.9306
lradius 136.609
lwrist 0.715032
lhand -24.319 3.27462
lfingers 7.12502
lthumb 2.16931 33.2433
rfemur -51.822 -13.4388 7.53378
rtibia 51.247
rfoot -7.43866 -13.9062
rtoes 0.351792
lfemur -3.3798 -14.9459 -17.7543
ltibia 24.2134
lfoot -35.152 27.367
ltoes -5.31502
2646
root 3.3162 14.5445 -1.93922 17.1088 22.2598 3.52233
lowerback -3.59242 -1.43985 -1.46151
upperback -7.82786 -1.84215 0.821219
thorax -6.04179 -0.783164 1.69975
lowerneck -15.3194 -3.29899 2.01669
upperneck 32.4451 -5.15852 -0.626813
head 13.4083 -2.03295 -1.39495
rclavicle 3.66633e-014 -1.86858e-014
rhumerus 16.8379 10.3657 -58.1092
rradius 132.825
rwrist -17.5178
rhand -30.8248 12.3538
rfingers 7.12502
rthumb -4.11398 -17.5862
lclavicle 3.66633e-014 -1.86858e-014
lhumerus 6.86074 -31.8052 71.0221
lradius 136.635
lwrist 0.717847
lhand -24.3583 3.20611
lfingers 7.12502
lthumb 2.13134 33.1752
rfemur -51.6515 -13.3718 7.73022
rtibia 51.0844
rfoot -7.35987 -13.8981
rtoes 0.310808
lfemur -3.22573 -14.9392 -17.6742
ltibia 24.2481
lfoot -35.2507 27.4697
ltoes -5.27746
2647
root 3.31642 14.5445 -1.9401 16.9435 22.1851 3.38143
lowerback -3.60562 -1.45803 -1.4202
upperback -7.8103 -1.86533 0.848729
thorax -6.01479 -0.796869 1.70492
lowerneck -15.288 -3.25921 2.03592
upperneck 32.4842 -5.08393 -0.692404
head 13.4164 -2.0067 -1.41246
rclavicle -1.20016e-014 -2.3059e-014
rhumerus 16.8827 10.4808 -58.0807
rradius 132.797
rwrist -17.5228
rhand -30.7443 12.3857
rfingers 7.12502
rthumb -4.03627 -17.5558
lclavicle -1.20016e-014 -2.3059e-014
lhumerus 6.79197 -31.8152 71.1147
lradius 136.65
lwrist 0.69461
lhand -24.4035 3.12644
lfingers 7.12502
lthumb 2.08771 33.096
rfemur -51.4853 -13.2831 7.88539
rtibia 50.9308
rfoot -7.29817 -13.9201
rtoes 0.292612
lfemur -3.06348 -14.9397 -17.6158
ltibia 24.2471
lfoot -35.3417 27.5568
ltoes -5.18503
2648
root 3.31541 14.5443 -1.93973 16.8104 22.1061 3.28758
lowerback -3.64096 -1.48157 -1.44592
upperback -7.79364 -1.89568 0.872628
thorax -5.97413 -0.810491 1.74322
lowerneck -15.2606 -3.22393 2.05398
upperneck 32.5232 -5.01792 -0.751694
head 13.4255 -1.98344 -1.42877
rclavicle -2.40778e-014 -3.97569e-016
rhumerus 16.9176 10.5837 -58.0417
rradius 132.776
rwrist -17.5696
rhand -30.6648 12.4537
rfingers 7.12502
rthumb -3.95942 -17.4892
lclavicle -2.40778e-014 -3.97569e-016
lhumerus 6.73636 -31.8336 71.202
lradius 136.654
lwrist 0.648358
lhand -24.4435 3.04153
lfingers 7.12502
lthumb 2.04904 33.0114
rfemur -51.3421 -13.1813 7.98405
rtibia 50.8029
rfoot -7.25248 -13.9574
rtoes 0.282268
lfemur -2.89998 -14.9396 -17.5932
ltibia 24.208
lfoot -35.4037 27.6374
ltoes -5.09402
2649
root 3.31323 14.5442 -1.93854 16.7141 22.0171 3.24416
lowerback -3.69395 -1.50784 -1.54005
upperback -7.78167 -1.92976 0.889904
thorax -5.92651 -0.822287 1.8124
lowerneck -15.2403 -3.19334 2.06444
upperneck 32.5683 -4.96203 -0.795942
head 13.4395 -1.96325 -1.4398
rclavicle -3.73342e-014 5.56597e-015
rhumerus 16.9334 10.6741 -57.9942
rradius 132.766
rwrist -17.6163
rhand -30.5968 12.5031
rfingers 7.12502
rthumb -3.89377 -17.4411
lclavicle -3.73342e-014 5.56597e-015
lhumerus 6.69321 -31.859 71.282
lradius 136.649
lwrist 0.590466
lhand -24.4663 2.96555
lfingers 7.12502
lthumb 2.02702 32.9357
rfemur -51.2375 -13.0668 8.02181
rtibia 50.7127
rfoot -7.22252 -14.0002
rtoes 0.273598
lfemur -2.74266 -14.9302 -17.6102
ltibia 24.134
lfoot -35.4362 27.7083
ltoes -5.00979
